<svg height="20" viewBox="0 0 64 64" width="20" xmlns="http://www.w3.org/2000/svg"><path d="m52.75 2.338a1 1 0 0 0 -.75-.338h-4a1 1 0 0 0 -.986.836l-1.014 6.081-1.014-6.081a1 1 0 0 0 -.986-.836h-32a1 1 0 0 0 -.992 1.124l3.559 28.5a5.007 5.007 0 0 0 4.963 4.376h5.612l1.846 12-1.064 6.917a6.148 6.148 0 1 0 12.152 0l-1.064-6.917 1.846-12h5.612a5.007 5.007 0 0 0 4.963-4.376l3.559-28.5a1 1 0 0 0 -.242-.786zm-20.75 3.662a3 3 0 0 0 -3 3v6a1 1 0 0 1 -2 0v-6a3 3 0 0 0 -6 0v2a1 1 0 0 1 -2 0v-7h18v15a1 1 0 0 1 -2 0v-10a3 3 0 0 0 -3-3zm3.012 41.848a.969.969 0 0 0 0 .3l1.088 7.07a4.148 4.148 0 1 1 -8.2 0l1.088-7.07a.969.969 0 0 0 0-.3l-1.822-11.848h9.668zm9.458-13.848h-24.94a3 3 0 0 1 -2.978-2.624l-.172-1.376h31.24l-.172 1.376a3 3 0 0 1 -2.978 2.624zm3.4-6h-31.74l-3-24h3.87v7a3 3 0 0 0 6 0v-2a1 1 0 0 1 2 0v6a3 3 0 0 0 6 0v-6a1 1 0 0 1 2 0v10a3 3 0 0 0 6 0v-15h4.153l1.861 11.164a1 1 0 0 0 1.972 0l1.861-11.164h2.02z"/><path d="m32 59a3 3 0 1 0 -3-3 3 3 0 0 0 3 3zm0-4a1 1 0 1 1 -1 1 1 1 0 0 1 1-1z"/><path d="m20 31h2v2h-2z"/><path d="m42 31h2v2h-2z"/></svg>